<svg width="104" height="33" viewBox="0 0 104 33" fill="none" xmlns="http://www.w3.org/2000/svg">
<path d="M55.0007 8.87056C55.0007 10.0238 54.0715 10.9524 52.9182 10.9524C51.765 10.9524 50.8363 10.0238 50.8363 8.87056C50.8363 7.7173 51.7333 6.78868 52.9182 6.78868C54.1041 6.82068 55.0007 7.74962 55.0007 8.87056ZM46.416 13.067V13.5796C46.416 13.5796 45.4233 12.2977 43.3091 12.2977C39.818 12.2977 37.0949 14.9565 37.0949 18.64C37.0949 22.2917 39.786 24.9822 43.3091 24.9822C45.4553 24.9822 46.416 23.669 46.416 23.669V24.2133C46.416 24.4696 46.6086 24.6613 46.8646 24.6613H49.4588V12.617H46.8646C46.6086 12.618 46.416 12.8426 46.416 13.067ZM46.416 20.7862C45.936 21.4911 44.9747 22.0997 43.8218 22.0997C41.7719 22.0997 40.202 20.8185 40.202 18.64C40.202 16.4618 41.7719 15.1805 43.8218 15.1805C44.943 15.1805 45.968 15.8211 46.416 16.4938V20.7862ZM51.381 12.618H54.4558V24.6622H51.381V12.618ZM97.3144 12.2974C95.2002 12.2974 94.207 13.5793 94.207 13.5793V6.82068H91.1322V24.6622H93.727C93.9833 24.6622 94.175 24.4379 94.175 24.2136V23.6693C94.175 23.6693 95.1683 24.9826 97.2818 24.9826C100.774 24.9826 103.496 22.2927 103.496 18.6409C103.496 14.9892 100.774 12.2974 97.3144 12.2974ZM96.8018 22.0674C95.6162 22.0674 94.6876 21.4594 94.207 20.7542V16.4618C94.6876 15.8211 95.7126 15.1485 96.8018 15.1485C98.8517 15.1485 100.421 16.4298 100.421 18.608C100.421 20.7862 98.852 22.0674 96.8018 22.0674ZM89.5309 17.5194V24.6942H86.4555V17.8713C86.4555 15.8858 85.8148 15.0845 84.0862 15.0845C83.1576 15.0845 82.1963 15.5651 81.5868 16.2701V24.6626H78.5126V12.6183H80.9461C81.2025 12.6183 81.3948 12.8426 81.3948 13.067V13.5796C82.2917 12.6503 83.4766 12.2977 84.6616 12.2977C86.0071 12.2977 87.1284 12.6826 88.0254 13.4513C89.114 14.3482 89.5309 15.5012 89.5309 17.5194ZM71.0481 12.2974C68.9345 12.2974 67.9413 13.5793 67.9413 13.5793V6.82068H64.8665V24.6622H67.4607C67.717 24.6622 67.9093 24.4379 67.9093 24.2136V23.6693C67.9093 23.6693 68.9025 24.9826 71.0161 24.9826C74.5079 24.9826 77.2304 22.2927 77.2304 18.6409C77.2624 14.9888 74.5399 12.2974 71.0481 12.2974ZM70.5355 22.0674C69.3505 22.0674 68.4219 21.4594 67.9413 20.7542V16.4618C68.4219 15.8211 69.4469 15.1485 70.5355 15.1485C72.586 15.1485 74.1552 16.4298 74.1552 18.608C74.1552 20.7862 72.586 22.0674 70.5355 22.0674ZM62.2076 12.2974C63.1363 12.2974 63.6169 12.458 63.6169 12.458V15.3085C63.6169 15.3085 61.0544 14.4436 59.4531 16.2698V24.6939H56.3777V12.618H58.9725C59.2288 12.618 59.4205 12.8423 59.4205 13.0666V13.5793C59.9977 12.9063 61.247 12.2974 62.2076 12.2974ZM30.2726 23.573C30.1126 23.1887 29.9523 22.7724 29.7923 22.4197C29.5357 21.8434 29.2793 21.2985 29.0557 20.7862L29.0237 20.7542C26.8131 15.9491 24.4433 11.0808 21.9444 6.27637L21.8484 6.08373C21.5856 5.58533 21.3295 5.08344 21.0801 4.57817C20.7595 4.00122 20.4395 3.39323 19.9269 2.81628C18.9019 1.53502 17.4284 0.830078 15.8591 0.830078C14.2572 0.830078 12.816 1.53503 11.7594 2.75196C11.2787 3.32827 10.9261 3.9369 10.6061 4.51385C10.3561 5.0188 10.1 5.52069 9.83781 6.01942L9.7415 6.21205C7.27499 11.0164 4.87279 15.8851 2.6626 20.6898L2.63028 20.7535C2.40629 21.2668 2.14965 21.8111 1.89333 22.3871C1.73334 22.7397 1.57334 23.124 1.41334 23.5403C0.996712 24.7253 0.868388 25.8465 1.02903 27.0001C1.38134 29.4026 2.98259 31.4199 5.1931 32.3175C6.02604 32.6701 6.89099 32.8301 7.78761 32.8301C8.04392 32.8301 8.36393 32.7981 8.62056 32.7658C9.67782 32.6378 10.7668 32.2858 11.824 31.6771C13.1373 30.9402 14.3865 29.8836 15.7958 28.346C17.205 29.8836 18.4863 30.9402 19.7675 31.6771C20.8251 32.2858 21.9137 32.6378 22.9707 32.7658C23.227 32.7984 23.5476 32.8301 23.8039 32.8301C24.7009 32.8301 25.5975 32.6701 26.3981 32.3175C28.6406 31.4199 30.2099 29.3706 30.5625 27.0001C30.8169 25.8792 30.6889 24.7586 30.2726 23.573ZM15.8268 25.2386C14.0969 23.0604 12.9757 21.0105 12.5917 19.2812C12.4317 18.5443 12.3994 17.9037 12.4957 17.327C12.5594 16.8144 12.752 16.3658 13.0083 15.9815C13.6169 15.1172 14.6419 14.5722 15.8271 14.5722C17.0127 14.5722 18.0696 15.0848 18.6463 15.9815C18.9026 16.3658 19.0946 16.8147 19.1592 17.327C19.2549 17.904 19.2229 18.5763 19.0629 19.2812C18.6773 20.9785 17.5561 23.0287 15.8268 25.2386ZM28.6067 26.7441C28.3827 28.4097 27.2615 29.8516 25.6922 30.4922C24.9236 30.8122 24.0903 30.9085 23.258 30.8122C22.4574 30.7159 21.6561 30.4596 20.8238 29.9796C19.6706 29.3383 18.5176 28.346 17.1721 26.8721C19.2859 24.2779 20.5672 21.9071 21.0478 19.7935C21.2721 18.8003 21.3045 17.9037 21.2078 17.0704C21.0801 16.2698 20.7915 15.5328 20.3432 14.8922C19.3496 13.4503 17.6837 12.618 15.8265 12.618C13.9692 12.618 12.3034 13.4829 11.3104 14.8922C10.8621 15.5328 10.5735 16.2698 10.4455 17.0704C10.3175 17.9037 10.3492 18.8323 10.6055 19.7935C11.0858 21.9071 12.399 24.3096 14.4809 26.9041C13.1677 28.3777 11.9824 29.371 10.8291 30.0116C9.99621 30.4922 9.19591 30.7485 8.39528 30.8442C7.53066 30.9405 6.6974 30.8122 5.96077 30.5242C4.39152 29.8836 3.27026 28.4417 3.04627 26.7761C2.95027 25.9755 3.01395 25.1749 3.33458 24.2779C3.43026 23.9573 3.5909 23.6373 3.75089 23.253C3.97521 22.7404 4.23088 22.1954 4.48752 21.6511L4.51984 21.5874C6.72972 16.8144 9.09991 11.9457 11.5664 7.20531L11.6624 7.01268C11.919 6.53269 12.1754 6.02006 12.4314 5.53943C12.6877 5.0268 12.9757 4.54616 13.3283 4.12953C14.0009 3.36155 14.8975 2.9446 15.8908 2.9446C16.8841 2.9446 17.7807 3.36155 18.4533 4.12953C18.806 4.54712 19.0939 5.02776 19.3503 5.53943C19.6069 6.02006 19.8632 6.53269 20.1189 7.01268L20.2152 7.20531C22.6441 11.9654 24.9828 16.771 27.2301 21.6194V21.6514C27.4867 22.1647 27.7107 22.7407 27.967 23.254C28.127 23.6376 28.2874 23.9576 28.3834 24.2783C28.639 25.1102 28.735 25.9115 28.6067 26.7441Z" fill="#191825" fill-opacity="0.5"/>
</svg>
