<svg width="190" height="33" viewBox="0 0 190 33" fill="none" xmlns="http://www.w3.org/2000/svg">
<mask id="mask0_3_139" style="mask-type:luminance" maskUnits="userSpaceOnUse" x="0" y="0" width="190" height="33">
<path d="M189.337 0.830078H0.733521V32.8301H189.337V0.830078Z" fill="white"/>
</mask>
<g mask="url(#mask0_3_139)">
<mask id="mask1_3_139" style="mask-type:luminance" maskUnits="userSpaceOnUse" x="0" y="0" width="190" height="33">
<path d="M189.337 0.830078H0.733521V32.8301H189.337V0.830078Z" fill="white"/>
</mask>
<g mask="url(#mask1_3_139)">
<path d="M74.6906 4.33345C74.6906 2.75315 75.9725 1.46387 77.5601 1.46387C79.1404 1.46387 80.4297 2.74579 80.4297 4.33345C80.3744 5.91374 79.041 7.14776 77.457 7.09251C75.954 7.03725 74.7495 5.8327 74.6906 4.33345Z" fill="#191825" fill-opacity="0.5"/>
</g>
<mask id="mask2_3_139" style="mask-type:luminance" maskUnits="userSpaceOnUse" x="0" y="0" width="190" height="33">
<path d="M189.337 0.830078H0.733521V32.8301H189.337V0.830078Z" fill="white"/>
</mask>
<g mask="url(#mask2_3_139)">
<path d="M119.915 23.4477C119.915 21.8564 121.197 20.5708 122.773 20.5708C124.361 20.5708 125.647 21.8564 125.647 23.4477C125.647 25.0354 124.361 26.321 122.773 26.321C121.197 26.321 119.915 25.0317 119.915 23.4477Z" fill="#191825" fill-opacity="0.5"/>
</g>
<mask id="mask3_3_139" style="mask-type:luminance" maskUnits="userSpaceOnUse" x="0" y="0" width="190" height="33">
<path d="M189.337 0.830078H0.733521V32.8301H189.337V0.830078Z" fill="white"/>
</mask>
<g mask="url(#mask3_3_139)">
<path d="M27.6613 22.2066C25.197 22.2066 23.4767 20.2469 23.4767 17.4436C23.4767 14.6441 25.1933 12.6844 27.6613 12.6844C30.1405 12.6844 31.8791 14.6441 31.8791 17.4436C31.8755 20.2911 30.181 22.2066 27.6613 22.2066ZM27.6613 8.49971C22.4416 8.49971 18.6511 12.2607 18.6511 17.4436C18.6511 22.6266 22.4453 26.3876 27.6613 26.3876C32.9069 26.3876 36.7084 22.6266 36.7084 17.4473C36.7084 12.2607 32.8995 8.49971 27.6613 8.49971ZM69.1431 17.8931C68.9626 17.5431 68.7305 17.2153 68.4616 16.9279L68.3032 16.7622L68.469 16.6038C68.7084 16.3496 68.9552 16.0512 69.1873 15.705L73.7956 8.85334H68.2001L64.7374 14.2131C64.5422 14.5041 64.148 14.6404 63.555 14.6404H62.763V4.50661C62.763 2.4806 61.5032 2.20801 60.1365 2.20801H57.8011L57.8048 26.1224H62.7593V18.954H63.2234C63.7871 18.954 64.1702 19.0203 64.3507 19.326L67.0839 24.4868C67.8501 25.8866 68.609 26.1261 70.0382 26.1261H73.8471L71.0144 21.4515L69.1431 17.8931ZM93.2122 8.46287C90.6889 8.46287 89.0791 9.5827 88.1803 10.5331L87.8819 10.8388L87.7751 10.4263C87.5099 9.40957 86.6184 8.85703 85.2739 8.85703H83.0526L83.0674 26.1261H87.9924V18.1693C87.9924 17.3884 88.0919 16.718 88.2982 16.0991C88.847 14.2352 90.3757 13.0711 92.2839 13.0711C93.82 13.0711 94.4241 13.8815 94.4241 15.9812V23.5033C94.4241 25.2898 95.2492 26.1297 97.0432 26.1297H99.3823L99.3713 15.145C99.3713 10.7652 97.2384 8.46287 93.2122 8.46287ZM77.6229 8.85334H75.2875L75.3022 22.2066V26.1224H77.7924L77.8808 26.1261L79.0448 26.1224H80.1978V26.1187H80.2088L80.2199 11.4798C80.2125 9.71163 79.369 8.85334 77.6229 8.85334ZM46.9969 22.2066C44.5325 22.2066 42.8123 20.2469 42.8123 17.4436C42.8123 14.6441 44.5325 12.6844 46.9969 12.6844C49.4723 12.6844 51.2147 14.6441 51.2147 17.4436C51.211 20.2911 49.5165 22.2066 46.9969 22.2066ZM46.9969 8.49971C41.7735 8.49971 37.9793 12.2607 37.9793 17.4436C37.9793 22.6266 41.7735 26.3876 46.9969 26.3876C52.2314 26.3876 56.044 22.6266 56.044 17.4473C56.044 12.2607 52.2351 8.49971 46.9969 8.49971Z" fill="#191825" fill-opacity="0.5"/>
</g>
</g>
<mask id="mask4_3_139" style="mask-type:luminance" maskUnits="userSpaceOnUse" x="0" y="0" width="190" height="33">
<path d="M189.337 0.830078H0.733521V32.8301H189.337V0.830078Z" fill="white"/>
</mask>
<g mask="url(#mask4_3_139)">
<mask id="mask5_3_139" style="mask-type:luminance" maskUnits="userSpaceOnUse" x="0" y="1" width="190" height="32">
<path d="M189.297 1.45996H0.733521V32.7895H189.297V1.45996Z" fill="white"/>
</mask>
<g mask="url(#mask5_3_139)">
<mask id="mask6_3_139" style="mask-type:luminance" maskUnits="userSpaceOnUse" x="0" y="0" width="190" height="33">
<path d="M189.337 0.830078H0.733521V32.8301H189.337V0.830078Z" fill="white"/>
</mask>
<g mask="url(#mask6_3_139)">
<path d="M152.526 22.2064C150.062 22.2064 148.341 20.2467 148.341 17.4435C148.341 14.6439 150.062 12.6842 152.526 12.6842C155.005 12.6842 156.744 14.6439 156.744 17.4435C156.744 20.2909 155.046 22.2064 152.526 22.2064ZM152.526 8.49951C147.303 8.49951 143.509 12.2605 143.509 17.4435C143.509 22.6264 147.295 26.3874 152.526 26.3874C157.764 26.3874 161.573 22.6264 161.573 17.4471C161.573 12.2605 157.761 8.49951 152.526 8.49951Z" fill="#191825" fill-opacity="0.5"/>
</g>
<mask id="mask7_3_139" style="mask-type:luminance" maskUnits="userSpaceOnUse" x="0" y="0" width="190" height="33">
<path d="M189.337 0.830078H0.733521V32.8301H189.337V0.830078Z" fill="white"/>
</mask>
<g mask="url(#mask7_3_139)">
<path d="M109.748 21.44C107.055 21.44 106.101 19.0935 106.101 16.8943C106.101 15.9218 106.348 12.7649 109.497 12.7649C111.059 12.7649 113.141 13.2143 113.141 17.0527C113.137 20.6811 111.291 21.44 109.748 21.44ZM115.693 8.80866C114.758 8.80866 114.039 9.18071 113.678 9.86219L113.546 10.1274L113.317 9.92481C112.522 9.23597 111.096 8.42188 108.786 8.42188C104.182 8.42188 101.084 11.8772 101.084 17.0269C101.084 22.1693 104.292 25.7609 108.882 25.7609C110.448 25.7609 111.689 25.3925 112.669 24.6484L113.045 24.3648V24.8437C113.045 27.1533 111.553 28.4242 108.849 28.4242C107.53 28.4242 106.337 28.1037 105.537 27.8127C104.495 27.4959 103.88 27.7611 103.46 28.8036L103.066 29.7687L102.513 31.1796L102.856 31.3601C104.587 32.281 106.841 32.8262 108.875 32.8262C113.067 32.8262 117.962 30.6823 117.962 24.6411L117.977 8.79761H115.693" fill="#191825" fill-opacity="0.5"/>
</g>
</g>
</g>
<mask id="mask8_3_139" style="mask-type:luminance" maskUnits="userSpaceOnUse" x="0" y="0" width="190" height="33">
<path d="M189.337 0.830078H0.733521V32.8301H189.337V0.830078Z" fill="white"/>
</mask>
<g mask="url(#mask8_3_139)">
<mask id="mask9_3_139" style="mask-type:luminance" maskUnits="userSpaceOnUse" x="0" y="0" width="190" height="33">
<path d="M189.337 0.830078H0.733521V32.8301H189.337V0.830078Z" fill="white"/>
</mask>
<g mask="url(#mask9_3_139)">
<path d="M9.32751 22.004L5.316 22.0003V17.2115C5.316 16.1838 5.71384 15.657 6.58687 15.5318H9.32014C11.2688 15.5318 12.5286 16.7621 12.536 18.7513C12.536 20.7957 11.3056 22.004 9.32751 22.004ZM5.316 9.08168V7.82187C5.316 6.71677 5.78014 6.19369 6.80789 6.12738H8.85969C10.6168 6.12738 11.6703 7.18091 11.6703 8.9417C11.6703 10.2862 10.9483 11.8518 8.92231 11.8518H5.316V9.08168ZM14.4404 13.8631L13.7184 13.4542L14.3483 12.9127C15.0888 12.2828 16.3154 10.8572 16.3154 8.4002C16.3154 4.63918 13.4016 2.21533 8.88916 2.21533H3.15737C1.8202 2.26322 0.748255 3.35727 0.733521 4.69444V26.0302H8.99598C14.0131 26.0302 17.2474 23.3006 17.2474 19.0718C17.2474 16.8026 16.1975 14.854 14.4404 13.8631Z" fill="#191825" fill-opacity="0.5"/>
</g>
<mask id="mask10_3_139" style="mask-type:luminance" maskUnits="userSpaceOnUse" x="0" y="0" width="190" height="33">
<path d="M189.337 0.830078H0.733521V32.8301H189.337V0.830078Z" fill="white"/>
</mask>
<g mask="url(#mask10_3_139)">
<path d="M183.565 8.51784C181.509 8.52153 179.561 9.46823 178.279 11.0817L177.922 11.5311L177.642 11.0264C176.728 9.36141 175.162 8.52153 172.974 8.52153C170.687 8.52153 169.151 9.79608 168.436 10.5586L167.972 11.0633L167.791 10.3965C167.534 9.43876 166.679 8.912 165.39 8.912H163.32L163.297 26.1147H167.998V18.519C167.998 17.8522 168.079 17.1966 168.245 16.5077C168.694 14.6732 169.928 12.6988 172.002 12.894C173.276 13.0193 173.903 14.0065 173.903 15.911V26.111H178.636V18.5153C178.636 17.6828 178.714 17.0566 178.901 16.4377C179.277 14.6843 180.57 12.8867 182.57 12.8867C184.018 12.8867 184.556 13.7044 184.556 15.911V23.5951C184.556 25.3301 185.329 26.111 187.068 26.111H189.278L189.282 15.13C189.297 10.7391 187.363 8.51784 183.565 8.51784ZM140.787 20.1398C140.772 20.1545 138.749 22.2911 136.086 22.2911C133.659 22.2911 131.209 20.8029 131.209 17.4802C131.209 14.6106 133.11 12.603 135.832 12.603C136.716 12.603 137.718 12.9198 137.876 13.4503L137.899 13.5387C138.105 14.2938 138.794 14.8132 139.571 14.8095L142.146 14.8132V12.5588C142.146 9.58611 138.37 8.51416 135.825 8.51416C130.388 8.51416 126.446 12.2973 126.446 17.5097C126.446 22.7184 130.347 26.5015 135.725 26.5015C140.392 26.5015 142.927 23.433 142.953 23.4072L143.085 23.2415L141.044 19.8562L140.787 20.1398Z" fill="#191825" fill-opacity="0.5"/>
</g>
</g>
</svg>
