<svg width="114" height="33" viewBox="0 0 114 33" fill="none" xmlns="http://www.w3.org/2000/svg">
<path d="M54.3887 25.8669H50.8737C50.8514 25.8669 50.8514 25.8669 50.8403 25.8558L47.8148 22.1628L44.7892 25.8558C44.7781 25.8669 44.767 25.8669 44.7559 25.8669H41.9416C41.9194 25.8669 41.9083 25.8558 41.8971 25.8446C41.8971 25.8335 41.8971 25.8113 41.9083 25.8001L46.3687 20.3275L41.9639 14.9104C41.9528 14.8881 41.9528 14.877 41.9528 14.8548C41.9639 14.8436 41.975 14.8325 41.9861 14.8325H45.5011C45.5122 14.8325 45.5234 14.8436 45.5345 14.8548L48.193 18.1473L50.8959 14.8548C50.9071 14.8436 50.9182 14.8325 50.9293 14.8325H53.788C53.7991 14.8325 53.8214 14.8436 53.8325 14.8548C53.8436 14.877 53.8325 14.8881 53.8214 14.9104L49.6501 19.927L54.4332 25.8001C54.4443 25.8113 54.4443 25.8335 54.4443 25.8446C54.422 25.8669 54.4109 25.8669 54.3887 25.8669Z" fill="#191825" fill-opacity="0.5"/>
<path d="M73.3985 16.768C71.8412 16.768 70.7845 17.7135 70.4731 19.3486H75.7678V19.2374C75.7678 17.9359 74.8001 16.768 73.3985 16.768ZM78.493 21.0394C78.4819 21.0505 78.4708 21.0616 78.4596 21.0616H70.4175C70.5843 22.9303 71.7968 23.9982 73.7656 23.9982C74.978 23.9982 76.2683 23.5866 78.0814 22.6189C78.1148 22.5966 78.1482 22.63 78.1482 22.6634V25.1327C78.1482 25.155 78.1371 25.1661 78.1259 25.1661C76.4352 25.878 74.7333 26.3674 73.3985 26.3674C69.9392 26.3674 67.4253 23.8424 67.4253 20.372C67.4253 16.9015 69.9392 14.3765 73.3985 14.3765C76.5575 14.3765 78.582 16.501 78.582 19.4265C78.582 19.9048 78.5041 21.006 78.493 21.0394Z" fill="#191825" fill-opacity="0.5"/>
<path d="M94.822 12.5413C93.832 12.5413 93.0311 11.7515 93.0311 10.7838C93.0311 9.78271 93.832 8.9707 94.822 8.9707C95.812 8.9707 96.6129 9.78271 96.6129 10.7838C96.6129 11.7515 95.812 12.5413 94.822 12.5413ZM93.376 25.8671C93.3426 25.8671 93.3315 25.8559 93.3315 25.8226V14.8661C93.3315 14.8438 93.3426 14.8216 93.3648 14.8216H96.268C96.2903 14.8216 96.3014 14.8438 96.3014 14.8661V25.8226C96.3014 25.8559 96.2792 25.8671 96.2569 25.8671H93.376Z" fill="#191825" fill-opacity="0.5"/>
<path d="M59.7055 24.2206C59.1827 24.2206 58.6488 24.1428 58.0259 23.987L58.037 16.9571C58.76 16.7235 59.3829 16.6234 60.0058 16.6234C62.0191 16.6234 63.3651 18.1028 63.3651 20.3163C63.3651 22.6856 61.9302 24.2206 59.7055 24.2206ZM60.4952 14.3765C59.6721 14.3765 58.849 14.5211 57.9814 14.8214H55.0893C55.0671 14.8214 55.0448 14.8436 55.0448 14.8659V32.8301C55.9124 32.7077 56.9803 32.3963 58.0259 31.6622V26.2006C58.7378 26.3007 59.3273 26.3674 59.8946 26.3674C63.8545 26.3674 66.4129 23.9982 66.4129 20.3275C66.4129 16.8236 63.9769 14.3765 60.4952 14.3765Z" fill="#191825" fill-opacity="0.5"/>
<path d="M88.0924 23.3086C87.1914 23.7869 86.3794 24.0094 85.623 24.0094C83.8321 24.0094 82.7531 22.7413 82.7531 20.6168C82.7531 18.1696 84.1213 16.579 86.2459 16.579C86.8354 16.579 87.4027 16.7236 88.0924 17.0351V23.3086ZM88.0924 9.02624V14.7548C87.247 14.5101 86.5017 14.3988 85.7453 14.3988C82.2971 14.3988 79.7054 16.9906 79.7054 20.4388C79.7054 23.8648 81.9968 26.3564 85.1558 26.3564C86.2459 26.3564 87.2692 26.0783 88.4706 25.4666V26.4565C89.2603 26.3008 90.1724 25.9894 91.0734 25.3442V7.84717C90.1947 7.96952 89.1491 8.26986 88.0924 9.02624Z" fill="#191825" fill-opacity="0.5"/>
<path d="M106.368 23.286C105.489 23.7865 104.744 24.0313 104.077 24.0313C102.152 24.0313 101.007 22.7632 101.007 20.6386C101.007 18.2249 102.364 16.6009 104.377 16.6009C104.911 16.6009 105.567 16.8122 106.368 17.2349V23.286ZM109.349 14.6876C109.349 14.6209 109.294 14.5653 109.227 14.5653H106.88C106.813 14.5653 106.746 14.6209 106.746 14.6876V15.0881H106.691C105.612 14.6098 104.677 14.3984 103.776 14.3984C100.528 14.3984 97.9811 17.0903 97.9811 20.5385C97.9811 24.0201 100.261 26.356 103.654 26.356C104.555 26.356 105.723 26.2893 106.813 25.0435V26.4561C107.581 26.2893 108.493 25.9667 109.349 25.3438V14.6876Z" fill="#191825" fill-opacity="0.5"/>
<path d="M33.9105 23.1307H41.1963C41.0851 23.9427 40.807 24.8993 40.1841 25.8671H32.6091C31.6859 25.8671 30.9184 25.144 30.8294 24.2431C30.8294 24.2319 30.8182 24.2208 30.8182 24.1986V9.82719C30.8182 9.81607 30.8294 9.80495 30.8294 9.79382C30.9184 8.88171 31.6859 8.15869 32.6091 8.15869H41.1852C41.074 8.9707 40.7959 9.94955 40.1619 10.9173H33.9105V14.8327H40.1062C40.1285 14.8327 40.1507 14.8549 40.1507 14.8772V17.5913C40.1507 17.6135 40.1285 17.6358 40.1062 17.6358H33.9105V23.1307Z" fill="#191825" fill-opacity="0.5"/>
<path d="M24.7895 26.1005C24.0665 26.1005 23.6216 25.5332 23.6216 24.8435C23.6216 24.1094 24.1333 23.5866 24.7895 23.5866C25.4347 23.5866 25.9464 24.0983 25.9464 24.8435C25.9464 25.5888 25.4347 26.1005 24.7895 26.1005ZM24.7895 23.4531C24.0554 23.4531 23.4214 24.0093 23.4214 24.8435C23.4214 25.6333 23.9887 26.234 24.7895 26.234C25.5126 26.234 26.1466 25.6778 26.1466 24.8435C26.1466 24.0093 25.5237 23.4531 24.7895 23.4531Z" fill="#191825" fill-opacity="0.5"/>
<path d="M24.4667 24.7323V24.2206H24.8115C24.9895 24.2206 25.1897 24.2429 25.1897 24.4542C25.1897 24.71 25.0006 24.7212 24.7892 24.7212C24.7781 24.7323 24.4667 24.7323 24.4667 24.7323ZM25.4344 24.4876C25.4344 24.1539 25.2342 24.0093 24.8337 24.0093H24.2108V25.6555H24.4778V24.9548H24.7336L25.1563 25.6555H25.4678L25.0117 24.9325C25.2564 24.9103 25.4344 24.7879 25.4344 24.4876Z" fill="#191825" fill-opacity="0.5"/>
<path d="M111.752 16.6455C111.029 16.6455 110.584 16.0782 110.584 15.3886C110.584 14.6544 111.095 14.1316 111.752 14.1316C112.397 14.1316 112.908 14.6433 112.908 15.3886C112.908 16.1338 112.397 16.6455 111.752 16.6455ZM111.752 14.0093C111.018 14.0093 110.383 14.5654 110.383 15.3997C110.383 16.1895 110.951 16.7901 111.752 16.7901C112.475 16.7901 113.109 16.2339 113.109 15.3997C113.109 14.5543 112.475 14.0093 111.752 14.0093Z" fill="#191825" fill-opacity="0.5"/>
<path d="M111.418 15.2773V14.7768H111.763C111.941 14.7768 112.141 14.799 112.141 15.0104C112.141 15.2662 111.952 15.2773 111.741 15.2773H111.418ZM112.397 15.0437C112.397 14.71 112.197 14.5654 111.796 14.5654H111.173V16.2117H111.44V15.5109H111.696L112.119 16.2117H112.43L111.974 15.4887C112.208 15.4664 112.397 15.3441 112.397 15.0437Z" fill="#191825" fill-opacity="0.5"/>
<path d="M15.3901 10.9059L14.8673 9.41541L10.3735 3.41993L11.1744 3.21971L18.9051 9.90484L23.4545 8.60341C23.9885 8.46993 24.6002 8.43656 25.0563 8.43656C23.6325 5.35539 21.0074 2.81927 17.5592 1.5957C10.7406 -0.840313 3.23229 2.73028 0.807403 9.56002C0.0510153 11.6735 -0.115835 13.8536 0.195619 15.9226L11.0854 12.1406L15.3901 10.9059Z" fill="#191825" fill-opacity="0.5"/>
<path d="M25.5458 9.61572C25.1454 9.87156 24.5558 10.2164 23.9774 10.4055L19.4168 11.7069L16.3802 21.4732L15.5904 21.7291L16.2356 14.2764L15.8796 12.7303L11.6082 13.9538L0.306915 16.5901C1.20791 20.9282 4.27795 24.7212 8.76066 26.3119C15.5904 28.7479 23.0875 25.1773 25.5236 18.3476C26.5691 15.4221 26.5024 12.3521 25.5458 9.61572Z" fill="#191825" fill-opacity="0.5"/>
<path d="M15.8686 12.719L16.2245 14.2651L15.5794 21.7178L16.3691 21.4619L19.4058 11.6956L23.9664 10.3942C24.5448 10.2051 25.1343 9.87138 25.5348 9.60442C25.3902 9.20398 25.2344 8.81466 25.0565 8.42535C24.5893 8.42535 23.9886 8.44759 23.4547 8.5922L18.9052 9.89363L11.1745 3.2085L10.3736 3.40872L14.8563 9.4042L15.3791 10.8947L11.0744 12.1294L0.184647 15.9114C0.218017 16.1338 0.26251 16.3674 0.307003 16.5899L11.5972 13.9314L15.8686 12.719Z" fill="white"/>
</svg>
