<svg width="174" height="33" viewBox="0 0 174 33" fill="none" xmlns="http://www.w3.org/2000/svg">
<path d="M99.9275 31.9711L113.232 1.86269C113.442 1.40581 113.195 1.01289 112.684 1.01289H103.363C103.09 1.02839 102.826 1.11607 102.598 1.26698C102.37 1.41789 102.187 1.62661 102.066 1.87182L88.9258 31.9711C88.7339 32.4371 88.9806 32.8209 89.4832 32.8209H98.6299C99.1416 32.8209 99.7264 32.4371 99.9275 31.9711ZM147.635 23.866L168.286 1.02203H144.135L138.671 9.82154H148.147L127.158 32.83H152.715L162.237 23.866H147.635ZM59.256 1.01289H43.2652C42.7911 1.04036 42.3327 1.19257 41.9364 1.45412C41.5401 1.71566 41.2199 2.07726 41.0082 2.50232L28.4257 31.3406C28.0602 32.163 28.508 32.83 29.4034 32.83H37.3257C38.2212 32.83 39.2446 32.163 39.5919 31.3497L43.1829 23.1716H46.9019C48.0624 23.0985 48.5559 23.5279 47.9162 24.8712L45.1567 31.3406C44.8094 32.163 45.248 32.83 46.1435 32.83H54.0658C54.5417 32.8051 55.0024 32.654 55.4006 32.3922C55.7988 32.1305 56.1203 31.7675 56.332 31.3406L59.9322 23.0162C61.0652 20.3115 59.4296 18.219 57.0538 18.1093C59.1555 17.3509 61.0926 15.2584 61.9607 13.3578L63.8248 8.97174C66.0726 3.87296 64.4736 0.948925 59.256 1.02203M54.5958 10.1139L52.6221 14.4543C52.1652 15.496 51.5073 15.5782 50.8494 15.5508H46.3994L49.3782 8.78899H53.6455C54.6872 8.85295 54.9522 9.22759 54.5958 10.1139ZM90.3787 1.00375H73.4376C73.0983 1.02143 72.7698 1.12888 72.4856 1.31511C72.2014 1.50134 71.9718 1.75967 71.8202 2.06371L58.8539 31.7609C58.6072 32.3457 58.9088 32.8117 59.5484 32.8117H77.6865C83.4341 32.7295 86.7328 31.4594 89.3552 25.3737L91.2193 21.3166C92.6813 17.8444 91.2467 16.3366 88.5055 15.898C90.7899 15.1944 92.5077 13.0471 93.2479 11.1556L94.7647 7.93919C96.6288 3.64452 95.0754 0.948925 90.3695 1.00375M82.0634 20.9237L80.9121 23.2355C80.3364 24.8438 79.3313 25.2824 77.915 25.3006H72.6152L75.1554 19.3155H80.4552C81.9538 19.4252 82.5386 19.7907 82.0634 20.9237ZM85.1063 10.2693L84.3113 12.0968L84.1925 12.3344C84.0605 12.7156 83.8061 13.0424 83.4689 13.2639C83.1317 13.4854 82.7307 13.5891 82.3284 13.5588H77.7322L79.8339 8.71589H84.5215C85.3621 8.77071 85.4992 9.31897 85.1063 10.2693ZM116.165 1.01289L112.227 9.82154H117.846C118.23 9.82154 118.413 10.0957 118.257 10.452L108.435 32.1995C108.27 32.5468 108.462 32.83 108.846 32.83H118.851C119.235 32.83 119.674 32.5468 119.829 32.1904L129.259 10.452C129.35 10.2692 129.487 10.1136 129.657 10.0012C129.827 9.88884 130.024 9.82368 130.228 9.8124H135.994L141.421 1.01289H116.165ZM33.1499 11.8501L34.3926 9.13622C36.8963 3.41608 35.2424 0.958063 30.3263 1.02203H18.4931C13.6228 0.958063 9.56571 3.69934 7.31786 8.79813L3.66281 19.1236H0.208801L6.81529 28.0419L17.7347 19.1236H14.9569L18.1642 11.6765C18.685 10.452 19.5805 9.86723 20.54 9.82154H22.404C22.8426 9.83981 23.1442 9.97688 23.3178 10.1688L29.111 5.29842L33.1499 11.8501Z" fill="#191825" fill-opacity="0.5"/>
<path d="M6.56866 30.6643L1.70746 24.5055L1.4516 25.0538C-0.805385 30.1891 -0.430743 32.7476 4.4396 32.8207H16.1175C20.9512 32.7476 25.182 30.1891 27.4481 25.0538L30.9204 17.0949H34.0272L28.7273 8.16748L17.8993 17.0949H20.869L18.676 22.1663C18.146 23.2445 17.3419 23.8293 16.483 23.8659H14.9296L6.56866 30.6643Z" fill="#191825" fill-opacity="0.5"/>
<path d="M172.133 0.8302C172.562 0.8302 172.928 0.985539 173.229 1.28708C173.531 1.58862 173.686 1.95412 173.686 2.38359C173.686 2.80392 173.531 3.16943 173.229 3.4801C172.928 3.79078 172.562 3.93698 172.133 3.93698C171.929 3.94013 171.726 3.90119 171.537 3.82259C171.348 3.74399 171.178 3.62741 171.036 3.4801C170.735 3.16943 170.579 2.80392 170.579 2.38359C170.579 1.96326 170.735 1.57948 171.036 1.28708C171.178 1.14021 171.349 1.02392 171.537 0.945352C171.726 0.866784 171.929 0.827598 172.133 0.8302ZM172.133 3.64458C172.301 3.64837 172.467 3.61791 172.623 3.55507C172.778 3.49222 172.919 3.39831 173.037 3.27908C173.157 3.16139 173.251 3.02036 173.314 2.86474C173.377 2.70912 173.407 2.54224 173.403 2.37445C173.406 2.20819 173.375 2.04305 173.312 1.88909C173.25 1.73514 173.156 1.59559 173.037 1.47897C172.92 1.3593 172.779 1.2651 172.623 1.20222C172.468 1.13935 172.301 1.10913 172.133 1.11347C171.967 1.10985 171.801 1.14042 171.647 1.2033C171.493 1.26617 171.354 1.36 171.237 1.47897C170.991 1.72568 170.872 2.02723 170.872 2.37445C170.872 2.72168 170.991 3.03236 171.237 3.27908C171.484 3.52579 171.786 3.64458 172.133 3.64458ZM172.928 3.20598H172.562L172.105 2.54807H171.914V3.20598H171.585V1.5338H172.105C172.288 1.5338 172.434 1.57948 172.544 1.66172C172.654 1.7531 172.718 1.87189 172.718 2.02723C172.718 2.22825 172.608 2.38359 172.398 2.46583L172.928 3.20598ZM171.923 2.27394H172.096C172.306 2.27394 172.407 2.1917 172.407 2.03636C172.407 1.88102 172.316 1.80792 172.105 1.80792H171.923V2.27394Z" fill="#191825" fill-opacity="0.5"/>
</svg>
