<svg width="213" height="33" viewBox="0 0 213 33" fill="none" xmlns="http://www.w3.org/2000/svg">
<path d="M23.3964 20.0566C25.2181 24.9922 30.7086 27.5186 35.6456 25.7011C40.5798 23.8709 43.1118 18.386 41.283 13.449C39.4599 8.50639 33.9778 5.98424 29.0338 7.80595C24.094 9.63472 21.5718 15.1168 23.3964 20.0566Z" fill="white"/>
<path d="M11.2034 26.2522C16.4695 26.2522 20.7385 21.9832 20.7385 16.7172C20.7385 11.4511 16.4695 7.18213 11.2034 7.18213C5.93738 7.18213 1.6684 11.4511 1.6684 16.7172C1.6684 21.9832 5.93738 26.2522 11.2034 26.2522Z" fill="white"/>
<path d="M12.8291 16.6152C12.8291 17.5867 12.0397 18.3832 11.0681 18.3832C10.0923 18.3832 9.30432 17.5881 9.30432 16.6152C9.30432 15.645 10.0923 14.8584 11.0681 14.8584C12.0397 14.8598 12.8291 15.645 12.8291 16.6152Z" fill="#191825" fill-opacity="0.5"/>
<path d="M34.0779 16.6152C34.0779 17.5867 33.2913 18.3832 32.3197 18.3832C31.3411 18.3832 30.5559 17.5881 30.5559 16.6152C30.5559 15.645 31.3411 14.8584 32.3197 14.8584C33.2927 14.8598 34.0779 15.645 34.0779 16.6152Z" fill="#191825" fill-opacity="0.5"/>
<path d="M5.82892 16.6154C5.82892 19.5062 8.1802 21.8532 11.0709 21.8532C13.9546 21.8532 16.3045 19.5062 16.3045 16.6154C16.3045 13.7318 13.9532 11.3833 11.0709 11.3833C8.18161 11.3861 5.82892 13.7332 5.82892 16.6154ZM7.6351 16.6154C7.6351 14.7245 9.18002 13.1867 11.0738 13.1867C12.9647 13.1867 14.5011 14.7288 14.5011 16.6154C14.5011 18.512 12.9647 20.0527 11.0738 20.0527C9.18002 20.0541 7.6351 18.5148 7.6351 16.6154Z" fill="#191825" fill-opacity="0.5"/>
<path d="M27.0805 16.6154C27.0805 19.5062 29.429 21.8532 32.3183 21.8532C35.2034 21.8532 37.5504 19.5062 37.5504 16.6154C37.5504 13.7318 35.2034 11.3833 32.3183 11.3833C29.4304 11.3861 27.0805 13.7332 27.0805 16.6154ZM28.8867 16.6154C28.8867 14.7245 30.4274 13.1867 32.3225 13.1867C34.2134 13.1867 35.7485 14.7288 35.7485 16.6154C35.7485 18.512 34.2134 20.0527 32.3225 20.0527C30.4245 20.0541 28.8867 18.5148 28.8867 16.6154Z" fill="#191825" fill-opacity="0.5"/>
<path d="M28.6668 6.80223C29.7712 6.39552 30.9009 6.19782 32.0165 6.16675C28.9775 4.80682 25.5374 4.11768 21.726 4.11768C17.9442 4.11768 14.4532 4.82235 11.4156 6.12156C16.9133 6.2303 21.3828 10.536 21.7683 15.963C21.8615 14.7175 22.1666 13.4861 22.7046 12.3196C23.8894 9.73956 26.0091 7.78228 28.6668 6.80223Z" fill="white"/>
<path d="M40.8651 10.4526C41.3622 8.32442 42.9396 6.19485 42.9396 6.19485L35.8603 6.19061C31.8907 3.62751 27.0695 2.26758 21.7286 2.26758C16.1844 2.26758 11.1782 3.65999 7.23117 6.24145L0.595337 6.2471C0.595337 6.2471 2.15438 8.35266 2.65853 10.4653C1.3678 12.2206 0.600986 14.377 0.600986 16.7184C0.600986 22.5634 5.35862 27.3182 11.2065 27.3182C14.5491 27.3182 17.5302 25.7606 19.4748 23.3401L21.7328 26.7209L24.0079 23.3105C25.0317 24.6125 26.3521 25.6688 27.8998 26.3848C30.4742 27.5682 33.3593 27.6854 36.0156 26.7039C41.502 24.6746 44.3193 18.5585 42.29 13.0792C41.9341 12.1147 41.4483 11.2377 40.8651 10.4526ZM21.7272 4.11895C25.5387 4.11895 28.9787 4.80809 32.0178 6.16943C30.9007 6.19909 29.7724 6.3982 28.6681 6.80209C26.0103 7.78214 23.8907 9.73942 22.7087 12.3152C22.1706 13.4817 21.867 14.7131 21.7724 15.9587C21.384 10.5345 16.9145 6.22874 11.4169 6.11718C14.4531 4.82221 17.9426 4.11895 21.7272 4.11895ZM18.2137 21.4549C16.6914 23.7002 14.1155 25.1802 11.2036 25.1802C6.53497 25.1802 2.7362 21.3786 2.7362 16.7198C2.7362 12.0483 6.53638 8.25381 11.2036 8.25381C15.8709 8.25381 19.6697 12.0483 19.6697 16.7198C19.6697 17.0051 19.6146 17.2734 19.5849 17.5488C19.4437 18.9793 18.9833 20.3195 18.2137 21.4549ZM35.2742 24.6972C33.1531 25.4768 30.8527 25.3906 28.798 24.443C27.3406 23.768 26.1473 22.7103 25.2873 21.397C24.9371 20.866 24.6292 20.3025 24.4019 19.6854C24.1434 18.9878 24.0149 18.269 23.9457 17.5445C23.8045 16.0759 24.0178 14.5903 24.6504 13.2134C25.5994 11.1587 27.2884 9.59538 29.4095 8.81021C33.79 7.19467 38.6663 9.44145 40.2847 13.8206C41.9016 18.1998 39.6534 23.076 35.2742 24.6972Z" fill="#191825" fill-opacity="0.5"/>
<path d="M55.4474 3.81682L52.3434 4.88867C52.3434 4.88867 52.3434 8.60553 52.3434 8.9388C52.0186 8.9388 48.9033 8.9388 48.9033 8.9388V11.6544C48.9033 11.6544 51.9226 11.6544 52.2502 11.6544C52.2502 12.0075 52.2502 20.3732 52.2502 20.3732C52.2502 24.5166 53.661 26.2168 57.1307 26.2168C58.0105 26.2168 58.8507 26.1081 59.6938 25.8779L59.8308 25.844L59.7926 23.0281L59.5554 23.1185C58.8733 23.3543 58.3395 23.4701 57.9271 23.4701C56.2975 23.4701 55.6931 22.5536 55.6931 20.0795C55.6931 20.0795 55.6931 12.0061 55.6931 11.6587C56.0235 11.6587 59.6627 11.6587 59.6627 11.6587V8.9388C59.6627 8.9388 56.0249 8.9388 55.6931 8.9388C55.6931 8.6027 55.6931 3.73633 55.6931 3.73633L55.4474 3.81682Z" fill="#191825" fill-opacity="0.5"/>
<path d="M66.1798 11.6896C66.1798 10.7336 66.1798 8.9387 66.1798 8.9387H63.0307V25.9173H66.4736V17.3948C66.4736 13.822 67.9747 11.8534 70.6946 11.8534C71.0886 11.8534 71.4713 11.9128 71.9373 12.0441L72.1604 12.1076L72.2734 8.75653L70.792 8.64356C68.7966 8.64214 67.1853 9.71964 66.1798 11.6896Z" fill="#191825" fill-opacity="0.5"/>
<path d="M78.4096 8.93728H75.1503V25.9173H78.5932V8.93728H78.4096ZM74.817 3.96217C74.817 5.09191 75.7378 6.00841 76.8647 6.00841C77.9944 6.00841 78.9123 5.09191 78.9123 3.96217C78.9123 2.83383 77.9944 1.91309 76.8647 1.91309C75.7378 1.91027 74.817 2.83383 74.817 3.96217Z" fill="#191825" fill-opacity="0.5"/>
<path d="M90.7522 8.53906C88.3896 8.53906 86.4027 9.65751 85.078 11.6925C85.078 10.879 85.078 8.93447 85.078 8.93447H81.9303V32.83H85.376C85.376 32.83 85.376 24.4854 85.376 23.5675C86.6187 25.2579 88.4009 26.1871 90.6194 26.1871C94.9718 26.1871 97.7834 22.6157 97.7834 17.1011C97.7834 11.9805 94.9562 8.53906 90.7522 8.53906ZM89.7905 23.4023C87.0664 23.4023 85.3746 21.0736 85.3746 17.3327C85.3746 13.7218 87.1596 11.3888 89.9218 11.3888C92.5838 11.3888 94.1753 13.6003 94.1753 17.2974C94.1767 21.0609 92.4948 23.4023 89.7905 23.4023Z" fill="#191825" fill-opacity="0.5"/>
<path d="M107.846 8.53906C105.741 8.53906 103.896 8.9373 102.205 9.75071L102.1 9.80155L102.137 12.7403L102.408 12.5878C104.025 11.684 105.556 11.2222 106.949 11.2222C109.443 11.2222 110.875 12.6513 110.875 15.1495C110.875 15.1495 110.875 15.2215 110.875 15.2949C110.572 15.2949 108.905 15.2949 108.905 15.2949C103.237 15.2949 100.119 17.3482 100.119 21.0708C100.119 24.0603 102.37 26.1504 105.592 26.1504C107.963 26.1504 109.798 25.2183 111.106 23.4644C111.106 24.1465 111.106 25.9159 111.106 25.9159H114.217V15.6409C114.215 10.9313 112.073 8.53906 107.846 8.53906ZM110.87 18.7491C110.87 21.6738 109.11 23.5661 106.387 23.5661C104.72 23.5661 103.556 22.4702 103.556 20.9027C103.556 18.8423 105.526 17.7112 109.102 17.7112C109.102 17.7112 110.575 17.7112 110.873 17.7112C110.87 17.9753 110.87 18.7491 110.87 18.7491Z" fill="#191825" fill-opacity="0.5"/>
<path d="M128.838 0.830078C128.838 0.830078 128.838 10.2959 128.838 11.2421C127.568 9.47686 125.802 8.54199 123.532 8.54199C119.32 8.54199 116.49 12.0103 116.49 17.1648C116.49 22.4746 119.361 26.1829 123.463 26.1829C125.894 26.1829 127.789 25.1069 129.102 23.0154C129.102 23.8613 129.102 25.9189 129.102 25.9189H132.285V0.830078H128.838ZM124.356 23.3332C121.732 23.3332 120.102 21.0454 120.102 17.3625C120.102 13.6753 121.746 11.2915 124.294 11.2915C127.138 11.2915 128.835 13.5595 128.835 17.3625C128.838 20.996 127.084 23.3332 124.356 23.3332Z" fill="#191825" fill-opacity="0.5"/>
<path d="M147.67 8.9375L142.788 18.7423L138.275 8.9375H134.395L142.716 25.9176L151.262 8.9375H147.67Z" fill="#191825" fill-opacity="0.5"/>
<path d="M156.275 8.93728H153.014V25.9173H156.461V8.93728H156.275ZM152.685 3.96217C152.685 5.09191 153.604 6.00841 154.732 6.00841C155.866 6.00841 156.78 5.09191 156.78 3.96217C156.78 2.83383 155.864 1.91309 154.732 1.91309C153.606 1.91027 152.685 2.83383 152.685 3.96217Z" fill="#191825" fill-opacity="0.5"/>
<path d="M160.498 13.2914C160.498 15.6794 162.139 16.9376 165.169 18.4204C167.08 19.3595 168.078 19.9131 168.078 21.2363C168.078 22.5934 166.852 23.4704 164.949 23.4704C163.603 23.4704 162.109 23.0919 160.629 22.3646L160.378 22.2404L160.266 25.2342L160.38 25.2765C161.795 25.84 163.282 26.1154 164.819 26.1154C169.03 26.1154 171.748 24.1087 171.748 21.0033C171.748 18.4148 170.027 17.1 167.043 15.7076C164.858 14.681 163.942 14.0836 163.942 12.9948C163.942 11.9639 164.962 11.2917 166.538 11.2917C167.961 11.2917 169.351 11.6081 170.665 12.2351L170.914 12.3494L171.064 9.42059L170.927 9.38105C169.5 8.95739 168.092 8.74415 166.737 8.74415C163.006 8.7385 160.498 10.5687 160.498 13.2914Z" fill="#191825" fill-opacity="0.5"/>
<path d="M182.492 8.53906C177.317 8.53906 174.105 11.9467 174.105 17.4259C174.105 22.908 177.32 26.3099 182.492 26.3099C187.69 26.3099 190.917 22.9066 190.917 17.4259C190.917 11.9481 187.687 8.53906 182.492 8.53906ZM182.521 23.5011C179.662 23.5011 177.741 21.0467 177.741 17.3934C177.741 13.7204 179.662 11.2575 182.521 11.2575C185.428 11.2575 187.304 13.6681 187.304 17.3934C187.304 21.1046 185.43 23.5011 182.521 23.5011Z" fill="#191825" fill-opacity="0.5"/>
<path d="M197.268 11.6896C197.268 10.7336 197.268 8.9387 197.268 8.9387H194.119V25.9173H197.562V17.3948C197.562 13.822 199.055 11.8534 201.779 11.8534C202.17 11.8534 202.55 11.9128 203.007 12.0441L203.24 12.1076L203.348 8.75653L201.872 8.64356C199.885 8.64214 198.277 9.71964 197.268 11.6896Z" fill="#191825" fill-opacity="0.5"/>
<path d="M211.561 8.186C212.126 8.75793 212.422 9.51768 212.422 10.3353C212.422 11.1897 212.103 11.9551 211.516 12.5186C210.903 13.1004 210.143 13.4125 209.349 13.4125C208.52 13.4125 207.758 13.0863 207.165 12.4734C206.598 11.8859 206.278 11.1346 206.278 10.3325C206.278 9.51486 206.604 8.72263 207.214 8.12104C207.786 7.5604 208.522 7.25537 209.349 7.25537C210.198 7.25678 210.97 7.57876 211.561 8.186ZM207.595 8.52351C207.098 9.0206 206.833 9.66031 206.833 10.3353C206.833 10.9934 207.078 11.5992 207.553 12.0822C208.029 12.5793 208.66 12.8476 209.337 12.8476C209.995 12.8476 210.627 12.5948 211.116 12.1203C211.596 11.6585 211.86 11.0259 211.86 10.3339C211.86 9.65749 211.614 9.04319 211.148 8.57293C210.66 8.07585 210.04 7.81459 209.349 7.81459C208.669 7.81459 208.071 8.05749 207.595 8.52351ZM209.406 8.58141C210.369 8.58141 210.863 8.93022 210.863 9.56146C210.863 9.99641 210.605 10.3339 210.146 10.4723L210.903 11.9537H209.877L209.246 10.6164H208.979V11.9537H208.05V8.58L209.406 8.58141ZM208.972 10.067H209.296C209.709 10.067 209.908 9.92157 209.908 9.63207C209.908 9.30162 209.699 9.16605 209.246 9.16605H208.972V10.067Z" fill="#191825" fill-opacity="0.5"/>
</svg>
