<svg width="143" height="41" viewBox="0 0 143 41" fill="none" xmlns="http://www.w3.org/2000/svg">
<path fill-rule="evenodd" clip-rule="evenodd" d="M9.14953 4.02511C7.71887 5.02547 6.42517 6.20822 5.30212 7.53964C9.89142 7.11357 15.722 7.80929 22.4912 11.1939C29.7198 14.8081 35.5406 14.9303 39.5916 14.1489C39.224 13.036 38.7612 11.9664 38.2131 10.9496C33.5758 11.4387 27.6308 10.7913 20.7024 7.32722C16.3028 5.12742 12.4246 4.22125 9.14953 4.02511ZM35.5042 7.09389C31.8421 3.00224 26.5202 0.427246 20.5968 0.427246C18.8573 0.427246 17.1695 0.649353 15.5605 1.06673C17.7397 1.66133 20.0547 2.53123 22.4912 3.74951C27.5638 6.28577 31.9432 7.1024 35.5042 7.09389ZM40.4577 18.0553C35.5637 19.0217 28.8056 18.8232 20.7024 14.7716C13.1268 10.9838 7.09723 11.0315 3.0307 11.9352C2.8208 11.9818 2.61584 12.0308 2.41583 12.0818C1.88342 13.2397 1.45844 14.4573 1.1535 15.7217C1.47919 15.6347 1.81573 15.552 2.16296 15.4748C7.09637 14.3785 14.0669 14.4261 22.4912 18.6383C30.0669 22.4261 36.0964 22.3784 40.163 21.4747C40.3023 21.4438 40.4396 21.4118 40.5746 21.3788C40.5894 21.0635 40.5968 20.7462 40.5968 20.4272C40.5968 19.6247 40.5496 18.8332 40.4577 18.0553ZM39.9216 25.5995C35.0751 26.4468 28.5138 26.1216 20.7024 22.216C13.1268 18.4282 7.09723 18.4759 3.0307 19.3796C2.12805 19.5801 1.31604 19.8244 0.599732 20.0823C0.597779 20.197 0.596802 20.312 0.596802 20.4272C0.596802 31.4729 9.55109 40.4272 20.5968 40.4272C29.8539 40.4272 37.6421 34.1381 39.9216 25.5995Z" fill="url(#paint0_linear_3_42)"/>
<path d="M71.3328 16.0352V12.4112H57.0528V16.0352H62.2848V29.4272H66.0768V16.0352H71.3328ZM79.1013 17.4992C78.8613 17.4272 78.5013 17.3792 78.1413 17.3792C77.1813 17.3792 75.6693 17.7632 75.0453 19.1072V17.4992H71.5173V29.4272H75.1653V24.2192C75.1653 21.8432 76.4853 20.9792 77.9493 20.9792C78.3093 20.9792 78.6933 21.0032 79.1013 21.0992V17.4992ZM80.6879 26.1392C80.6879 28.0352 82.1999 29.7632 84.8159 29.7632C86.3999 29.7632 87.5519 29.0912 88.1759 28.0832C88.1759 28.8992 88.2719 29.3312 88.2959 29.4272H91.5839C91.5599 29.3072 91.4399 28.5152 91.4399 27.5792V21.7472C91.4399 19.2992 90.0239 17.1392 86.1599 17.1392C82.6559 17.1392 81.0719 19.3952 80.9279 21.0992L84.0959 21.7472C84.1679 20.8592 84.8639 19.9952 86.1359 19.9952C87.2879 19.9952 87.8879 20.5952 87.8879 21.2912C87.8879 21.6992 87.6719 22.0112 87.0239 22.1072L84.2159 22.5392C82.2479 22.8272 80.6879 24.0272 80.6879 26.1392ZM85.7039 27.1232C84.6959 27.1232 84.2879 26.5232 84.2879 25.8992C84.2879 25.0592 84.8639 24.6992 85.6319 24.5792L87.8879 24.2192V24.7472C87.8879 26.5952 86.7839 27.1232 85.7039 27.1232ZM105.917 17.4992H102.077L99.5333 24.9152L96.7733 17.4992H92.8133L97.7093 29.4272H101.381L105.917 17.4992ZM111.423 29.4272V12.0512H107.775V29.4272H111.423ZM120.114 26.4272C118.746 26.4272 117.426 25.4432 117.426 23.4512C117.426 21.4352 118.746 20.4992 120.114 20.4992C121.506 20.4992 122.802 21.4352 122.802 23.4512C122.802 25.4672 121.506 26.4272 120.114 26.4272ZM120.114 17.1392C116.562 17.1392 113.778 19.7552 113.778 23.4512C113.778 27.1472 116.562 29.7872 120.114 29.7872C123.69 29.7872 126.45 27.1472 126.45 23.4512C126.45 19.7552 123.69 17.1392 120.114 17.1392ZM127.959 30.0992C128.295 32.2352 130.479 34.3472 133.911 34.3472C138.375 34.3472 140.295 31.3712 140.295 27.9392V17.4992H136.815V18.7712C136.479 18.1472 135.447 17.2832 133.503 17.2832C130.239 17.2832 127.959 19.9712 127.959 23.1152C127.959 26.4272 130.335 28.9232 133.503 28.9232C135.231 28.9232 136.263 28.2272 136.695 27.5792V28.1312C136.695 30.2912 135.567 31.1792 133.743 31.1792C132.375 31.1792 131.415 30.3392 131.175 29.1872L127.959 30.0992ZM134.175 25.7552C132.711 25.7552 131.607 24.7472 131.607 23.1152C131.607 21.4832 132.807 20.4752 134.175 20.4752C135.543 20.4752 136.719 21.4832 136.719 23.1152C136.719 24.7472 135.663 25.7552 134.175 25.7552Z" fill="#191825"/>
<defs>
<linearGradient id="paint0_linear_3_42" x1="36.5968" y1="43.6272" x2="-3.13641" y2="36.0204" gradientUnits="userSpaceOnUse">
<stop stop-color="#5D50C6"/>
<stop offset="1" stop-color="#F85E9F"/>
</linearGradient>
</defs>
</svg>
