<svg width="21" height="21" viewBox="0 0 21 21" fill="none" xmlns="http://www.w3.org/2000/svg">
<path d="M10.5641 0.0922852C5.04409 0.0922852 0.564087 4.57229 0.564087 10.0923C0.564087 15.6123 5.04409 20.0923 10.5641 20.0923C16.0841 20.0923 20.5641 15.6123 20.5641 10.0923C20.5641 4.57229 16.0941 0.0922852 10.5641 0.0922852ZM13.5641 12.3223L10.664 13.9923C10.304 14.2023 9.90414 14.3023 9.51404 14.3023C9.11414 14.3023 8.72404 14.2023 8.36409 13.9923C7.64409 13.5723 7.21409 12.8323 7.21409 11.9923V8.64229C7.21409 7.81229 7.64409 7.06229 8.36409 6.64229C9.08414 6.22229 9.94404 6.22229 10.674 6.64229L13.574 8.31229C14.294 8.73229 14.724 9.47229 14.724 10.3123C14.724 11.1523 14.294 11.9023 13.5641 12.3223Z" fill="#5D50C6"/>
</svg>
