<svg width="21" height="21" viewBox="0 0 21 21" fill="none" xmlns="http://www.w3.org/2000/svg">
<path fill-rule="evenodd" clip-rule="evenodd" d="M9.29974 1.61127C8.62934 1.61127 8.05907 2.07709 7.89899 2.70494H13.2816C13.1216 2.07709 12.5513 1.61127 11.8809 1.61127H9.29974ZM14.8024 2.70493H16.7834C18.8844 2.70493 20.5953 4.43657 20.5953 6.56314C20.5953 6.56314 20.5353 7.46338 20.5153 8.71708C20.5133 8.81629 20.4652 8.91349 20.3862 8.97229C19.905 9.32769 19.4647 9.62139 19.4247 9.64159C17.7639 10.7555 15.8339 11.5393 13.7779 11.9292C13.6438 11.9555 13.5118 11.8857 13.4437 11.7662C12.8674 10.7677 11.7909 10.1176 10.5903 10.1176C9.39774 10.1176 8.3112 10.7606 7.7179 11.7601C7.64887 11.8776 7.5188 11.9454 7.38574 11.9201C5.34672 11.5292 3.41675 10.7464 1.76593 9.65168L0.805447 8.98339C0.725407 8.93279 0.675377 8.84159 0.675377 8.74039C0.645367 8.22388 0.595337 6.56314 0.595337 6.56314C0.595337 4.43657 2.3062 2.70493 4.40725 2.70493H6.37823C6.56833 1.23659 7.79894 0.0922852 9.29974 0.0922852H11.8809C13.3817 0.0922852 14.6123 1.23659 14.8024 2.70493ZM20.2551 10.9075L20.2151 10.9278C18.1941 12.2847 15.7629 13.186 13.2116 13.5607C12.8514 13.6113 12.4912 13.3784 12.3912 13.0139C12.1711 12.1835 11.4607 11.6366 10.6103 11.6366H10.6003H10.5803C9.72994 11.6366 9.01954 12.1835 8.79944 13.0139C8.69944 13.3784 8.33921 13.6113 7.97903 13.5607C5.42776 13.186 2.99654 12.2847 0.975527 10.9278C0.965527 10.9177 0.865477 10.8569 0.785437 10.9075C0.695387 10.9582 0.695387 11.0797 0.695387 11.0797L0.765427 16.2442C0.765427 18.3708 2.46628 20.0923 4.56733 20.0923H16.6133C18.7144 20.0923 20.4152 18.3708 20.4152 16.2442L20.4953 11.0797C20.4953 11.0797 20.4953 10.9582 20.4052 10.9075C20.3552 10.8772 20.2952 10.8873 20.2551 10.9075ZM11.3407 15.1506C11.3407 15.5759 11.0105 15.91 10.5903 15.91C10.1801 15.91 9.83994 15.5759 9.83994 15.1506V13.8442C9.83994 13.429 10.1801 13.0847 10.5903 13.0847C11.0105 13.0847 11.3407 13.429 11.3407 13.8442V15.1506Z" fill="#F85E9F"/>
</svg>
